<?xml version="1.0" encoding="UTF-8" standalone="no"?>
<!DOCTYPE svg PUBLIC "-//W3C//DTD SVG 1.1//EN" "http://www.w3.org/Graphics/SVG/1.1/DTD/svg11.dtd">
<svg width="100%" height="100%" viewBox="0 0 591 591" version="1.1" xmlns="http://www.w3.org/2000/svg" xmlns:xlink="http://www.w3.org/1999/xlink" xml:space="preserve" xmlns:serif="http://www.serif.com/" style="fill-rule:evenodd;clip-rule:evenodd;stroke-linejoin:round;stroke-miterlimit:2;">
    <g transform="matrix(1.09232,0,0,1.09232,-26.0664,-29.0534)">
        <path d="M564.504,78.02L564.504,515.816C564.504,544.197 541.462,567.238 513.082,567.238L75.286,567.238C46.905,567.238 23.863,544.197 23.863,515.816L23.863,78.02C23.863,49.639 46.905,26.598 75.286,26.598L513.082,26.598C541.462,26.598 564.504,49.639 564.504,78.02ZM553.06,78.02C553.06,55.955 535.146,38.041 513.082,38.041L75.286,38.041C53.221,38.041 35.307,55.955 35.307,78.02L35.307,515.816C35.307,537.881 53.221,555.795 75.286,555.795L513.082,555.795C535.146,555.795 553.06,537.881 553.06,515.816L553.06,78.02Z"/>
    </g>
    <g transform="matrix(1.00402,0,0,1.00402,-0.09168,-2.83721)">
        <path d="M564.504,61.494L564.504,532.343C564.504,551.602 548.868,567.238 529.608,567.238L58.759,567.238C39.5,567.238 23.863,551.602 23.863,532.343L23.863,61.494C23.863,42.234 39.5,26.598 58.759,26.598L529.608,26.598C548.868,26.598 564.504,42.234 564.504,61.494ZM552.054,61.494C552.054,49.105 541.996,39.048 529.608,39.048L58.759,39.048C46.371,39.048 36.313,49.105 36.313,61.494L36.313,532.343C36.313,544.731 46.371,554.788 58.759,554.788L529.608,554.788C541.996,554.788 552.054,544.731 552.054,532.343L552.054,61.494Z"/>
    </g>
    <g transform="matrix(1.00402,0,0,0.414675,-0.09168,12.8382)">
        <path d="M564.504,113.364L564.504,480.472C564.504,528.36 548.447,567.238 528.668,567.238L59.699,567.238C39.921,567.238 23.863,528.36 23.863,480.472L23.863,113.364C23.863,65.476 39.921,26.598 59.699,26.598L528.668,26.598C548.447,26.598 564.504,65.476 564.504,113.364ZM552.054,113.364C552.054,82.113 541.575,56.742 528.668,56.742L59.699,56.742C46.792,56.742 36.313,82.113 36.313,113.364L36.313,480.472C36.313,511.723 46.792,537.094 59.699,537.094L528.668,537.094C541.575,537.094 552.054,511.723 552.054,480.472L552.054,113.364Z"/>
    </g>
    <g transform="matrix(1.00402,0,0,0.216403,-0.09168,231.385)">
        <path d="M564.504,192.86L564.504,400.977C564.504,492.739 548.447,567.238 528.668,567.238L59.699,567.238C39.921,567.238 23.863,492.739 23.863,400.977L23.863,192.86C23.863,101.097 39.921,26.598 59.699,26.598L528.668,26.598C548.447,26.598 564.504,101.097 564.504,192.86ZM552.054,192.86C552.054,132.977 541.575,84.36 528.668,84.36L59.699,84.36C46.792,84.36 36.313,132.977 36.313,192.86L36.313,400.977C36.313,460.859 46.792,509.476 59.699,509.476L528.668,509.476C541.575,509.476 552.054,460.859 552.054,400.977L552.054,192.86Z"/>
    </g>
    <g transform="matrix(1.00402,0,0,0.415081,-0.09168,331.234)">
        <path d="M564.504,113.279L564.504,480.557C564.504,528.398 548.447,567.238 528.668,567.238L59.699,567.238C39.921,567.238 23.863,528.398 23.863,480.557L23.863,113.279C23.863,65.438 39.921,26.598 59.699,26.598L528.668,26.598C548.447,26.598 564.504,65.438 564.504,113.279ZM552.054,113.279C552.054,82.059 541.575,56.713 528.668,56.713L59.699,56.713C46.792,56.713 36.313,82.059 36.313,113.279L36.313,480.557C36.313,511.777 46.792,537.124 59.699,537.124L528.668,537.124C541.575,537.124 552.054,511.777 552.054,480.557L552.054,113.279Z"/>
    </g>
    <g transform="matrix(1,0,0,1,-13.5057,-20.565)">
        <circle cx="140.838" cy="482.485" r="44.061" style="fill:rgb(255,86,0);"/>
    </g>
</svg>
